<svg xmlns="http://www.w3.org/2000/svg" width="375" viewBox="0 0 375 375" height="375" version="1.0"><defs><clipPath id="a"><path d="M 126.5625 79.96875 L 248.8125 79.96875 L 248.8125 229.96875 L 126.5625 229.96875 Z M 126.5625 79.96875"/></clipPath></defs><path fill="#9C79E4" d="M 368.050781 0 L 0 0 L 0 375 L 375 375 L 375 0 L 368.050781 0 M 368.050781 368.050781 L 7.027344 368.050781 L 7.027344 7.027344 L 368.050781 7.027344 L 368.050781 368.050781"/><g clip-path="url(#a)"><path fill="#9C79E4" d="M 187.6875 211.21875 C 211.023438 211.21875 230.003906 192.292969 230.003906 169.03125 C 230.003906 145.765625 211.023438 126.84375 187.6875 126.84375 L 187.6875 154.96875 L 140.667969 117.46875 L 187.6875 79.96875 L 187.6875 108.09375 C 221.390625 108.09375 248.8125 135.429688 248.8125 169.03125 C 248.8125 202.628906 221.390625 229.96875 187.6875 229.96875 C 153.984375 229.96875 126.5625 202.628906 126.5625 169.03125 L 145.371094 169.03125 C 145.371094 192.292969 164.351562 211.21875 187.6875 211.21875 Z M 187.6875 211.21875"/></g><g fill="#9C79E4"><g><g><path d="M 5.578125 0 L 2.90625 0 L 2.90625 -19.796875 L 5.578125 -19.796875 Z M 5.578125 0" transform="translate(56.62 293.692)"/></g></g></g><g fill="#9C79E4"><g><g><path d="M 3.78125 -19.796875 C 4.019531 -19.796875 4.195312 -19.765625 4.3125 -19.703125 C 4.425781 -19.648438 4.5625 -19.53125 4.71875 -19.34375 L 16.1875 -4.421875 C 16.15625 -4.660156 16.132812 -4.890625 16.125 -5.109375 C 16.113281 -5.335938 16.109375 -5.5625 16.109375 -5.78125 L 16.109375 -19.796875 L 18.46875 -19.796875 L 18.46875 0 L 17.109375 0 C 16.898438 0 16.722656 -0.0351562 16.578125 -0.109375 C 16.429688 -0.179688 16.289062 -0.304688 16.15625 -0.484375 L 4.703125 -15.390625 C 4.722656 -15.160156 4.734375 -14.9375 4.734375 -14.71875 C 4.742188 -14.5 4.75 -14.296875 4.75 -14.109375 L 4.75 0 L 2.40625 0 L 2.40625 -19.796875 Z M 3.78125 -19.796875" transform="translate(76.433 293.692)"/></g></g></g><g fill="#9C79E4"><g><g><path d="M 5.34375 -8.265625 L 5.34375 0 L 2.6875 0 L 2.6875 -19.796875 L 8.28125 -19.796875 C 9.53125 -19.796875 10.609375 -19.671875 11.515625 -19.421875 C 12.429688 -19.171875 13.1875 -18.804688 13.78125 -18.328125 C 14.375 -17.847656 14.8125 -17.269531 15.09375 -16.59375 C 15.382812 -15.914062 15.53125 -15.15625 15.53125 -14.3125 C 15.53125 -13.613281 15.421875 -12.957031 15.203125 -12.34375 C 14.984375 -11.738281 14.660156 -11.191406 14.234375 -10.703125 C 13.816406 -10.222656 13.304688 -9.8125 12.703125 -9.46875 C 12.097656 -9.132812 11.414062 -8.878906 10.65625 -8.703125 C 10.988281 -8.515625 11.285156 -8.234375 11.546875 -7.859375 L 17.3125 0 L 14.9375 0 C 14.445312 0 14.085938 -0.1875 13.859375 -0.5625 L 8.71875 -7.640625 C 8.5625 -7.859375 8.390625 -8.015625 8.203125 -8.109375 C 8.023438 -8.210938 7.75 -8.265625 7.375 -8.265625 Z M 5.34375 -10.21875 L 8.15625 -10.21875 C 8.9375 -10.21875 9.625 -10.3125 10.21875 -10.5 C 10.8125 -10.6875 11.304688 -10.953125 11.703125 -11.296875 C 12.109375 -11.640625 12.410156 -12.050781 12.609375 -12.53125 C 12.816406 -13.007812 12.921875 -13.539062 12.921875 -14.125 C 12.921875 -15.300781 12.53125 -16.1875 11.75 -16.78125 C 10.976562 -17.382812 9.820312 -17.6875 8.28125 -17.6875 L 5.34375 -17.6875 Z M 5.34375 -10.21875" transform="translate(125.31 293.692)"/></g></g></g><g fill="#9C79E4"><g><g><path d="M 14.609375 -19.796875 L 14.609375 -17.625 L 5.09375 -17.625 L 5.09375 -11.046875 L 12.796875 -11.046875 L 12.796875 -8.9375 L 5.09375 -8.9375 L 5.09375 -2.1875 L 14.609375 -2.1875 L 14.609375 0 L 2.40625 0 L 2.40625 -19.796875 Z M 14.609375 -19.796875" transform="translate(154.432 293.692)"/></g></g></g><g fill="#9C79E4"><g><g><path d="M 0.109375 -19.796875 L 2.25 -19.796875 C 2.488281 -19.796875 2.679688 -19.738281 2.828125 -19.625 C 2.972656 -19.507812 3.085938 -19.359375 3.171875 -19.171875 L 8.765625 -5.203125 C 8.890625 -4.890625 9.003906 -4.546875 9.109375 -4.171875 C 9.222656 -3.804688 9.328125 -3.425781 9.421875 -3.03125 C 9.503906 -3.425781 9.59375 -3.804688 9.6875 -4.171875 C 9.789062 -4.546875 9.90625 -4.890625 10.03125 -5.203125 L 15.609375 -19.171875 C 15.671875 -19.328125 15.78125 -19.46875 15.9375 -19.59375 C 16.09375 -19.726562 16.285156 -19.796875 16.515625 -19.796875 L 18.671875 -19.796875 L 10.59375 0 L 8.1875 0 Z M 0.109375 -19.796875" transform="translate(181.813 293.692)"/></g></g></g><g fill="#9C79E4"><g><g><path d="M 14.609375 -19.796875 L 14.609375 -17.625 L 5.09375 -17.625 L 5.09375 -11.046875 L 12.796875 -11.046875 L 12.796875 -8.9375 L 5.09375 -8.9375 L 5.09375 -2.1875 L 14.609375 -2.1875 L 14.609375 0 L 2.40625 0 L 2.40625 -19.796875 Z M 14.609375 -19.796875" transform="translate(211.93 293.692)"/></g></g></g><g fill="#9C79E4"><g><g><path d="M 5.34375 -8.265625 L 5.34375 0 L 2.6875 0 L 2.6875 -19.796875 L 8.28125 -19.796875 C 9.53125 -19.796875 10.609375 -19.671875 11.515625 -19.421875 C 12.429688 -19.171875 13.1875 -18.804688 13.78125 -18.328125 C 14.375 -17.847656 14.8125 -17.269531 15.09375 -16.59375 C 15.382812 -15.914062 15.53125 -15.15625 15.53125 -14.3125 C 15.53125 -13.613281 15.421875 -12.957031 15.203125 -12.34375 C 14.984375 -11.738281 14.660156 -11.191406 14.234375 -10.703125 C 13.816406 -10.222656 13.304688 -9.8125 12.703125 -9.46875 C 12.097656 -9.132812 11.414062 -8.878906 10.65625 -8.703125 C 10.988281 -8.515625 11.285156 -8.234375 11.546875 -7.859375 L 17.3125 0 L 14.9375 0 C 14.445312 0 14.085938 -0.1875 13.859375 -0.5625 L 8.71875 -7.640625 C 8.5625 -7.859375 8.390625 -8.015625 8.203125 -8.109375 C 8.023438 -8.210938 7.75 -8.265625 7.375 -8.265625 Z M 5.34375 -10.21875 L 8.15625 -10.21875 C 8.9375 -10.21875 9.625 -10.3125 10.21875 -10.5 C 10.8125 -10.6875 11.304688 -10.953125 11.703125 -11.296875 C 12.109375 -11.640625 12.410156 -12.050781 12.609375 -12.53125 C 12.816406 -13.007812 12.921875 -13.539062 12.921875 -14.125 C 12.921875 -15.300781 12.53125 -16.1875 11.75 -16.78125 C 10.976562 -17.382812 9.820312 -17.6875 8.28125 -17.6875 L 5.34375 -17.6875 Z M 5.34375 -10.21875" transform="translate(239.31 293.692)"/></g></g></g><g fill="#9C79E4"><g><g><path d="M 12.546875 -16.703125 C 12.460938 -16.566406 12.375 -16.460938 12.28125 -16.390625 C 12.1875 -16.328125 12.066406 -16.296875 11.921875 -16.296875 C 11.765625 -16.296875 11.582031 -16.375 11.375 -16.53125 C 11.164062 -16.6875 10.898438 -16.859375 10.578125 -17.046875 C 10.265625 -17.234375 9.882812 -17.40625 9.4375 -17.5625 C 9 -17.71875 8.460938 -17.796875 7.828125 -17.796875 C 7.222656 -17.796875 6.691406 -17.710938 6.234375 -17.546875 C 5.773438 -17.390625 5.390625 -17.171875 5.078125 -16.890625 C 4.765625 -16.617188 4.53125 -16.296875 4.375 -15.921875 C 4.21875 -15.554688 4.140625 -15.15625 4.140625 -14.71875 C 4.140625 -14.164062 4.273438 -13.707031 4.546875 -13.34375 C 4.828125 -12.976562 5.1875 -12.664062 5.625 -12.40625 C 6.070312 -12.15625 6.578125 -11.929688 7.140625 -11.734375 C 7.710938 -11.546875 8.296875 -11.347656 8.890625 -11.140625 C 9.484375 -10.941406 10.0625 -10.71875 10.625 -10.46875 C 11.195312 -10.21875 11.707031 -9.894531 12.15625 -9.5 C 12.601562 -9.113281 12.960938 -8.640625 13.234375 -8.078125 C 13.503906 -7.515625 13.640625 -6.828125 13.640625 -6.015625 C 13.640625 -5.148438 13.488281 -4.335938 13.1875 -3.578125 C 12.894531 -2.816406 12.46875 -2.15625 11.90625 -1.59375 C 11.34375 -1.03125 10.644531 -0.585938 9.8125 -0.265625 C 8.988281 0.0546875 8.050781 0.21875 7 0.21875 C 5.71875 0.21875 4.550781 -0.0078125 3.5 -0.46875 C 2.445312 -0.9375 1.546875 -1.566406 0.796875 -2.359375 L 1.578125 -3.640625 C 1.648438 -3.734375 1.738281 -3.816406 1.84375 -3.890625 C 1.945312 -3.960938 2.066406 -4 2.203125 -4 C 2.390625 -4 2.609375 -3.894531 2.859375 -3.6875 C 3.109375 -3.476562 3.421875 -3.25 3.796875 -3 C 4.171875 -2.75 4.617188 -2.519531 5.140625 -2.3125 C 5.671875 -2.101562 6.320312 -2 7.09375 -2 C 7.726562 -2 8.289062 -2.085938 8.78125 -2.265625 C 9.28125 -2.441406 9.703125 -2.6875 10.046875 -3 C 10.398438 -3.320312 10.664062 -3.703125 10.84375 -4.140625 C 11.03125 -4.585938 11.125 -5.082031 11.125 -5.625 C 11.125 -6.21875 10.988281 -6.707031 10.71875 -7.09375 C 10.445312 -7.476562 10.085938 -7.796875 9.640625 -8.046875 C 9.203125 -8.304688 8.695312 -8.523438 8.125 -8.703125 C 7.5625 -8.890625 6.984375 -9.078125 6.390625 -9.265625 C 5.796875 -9.453125 5.210938 -9.671875 4.640625 -9.921875 C 4.078125 -10.171875 3.570312 -10.492188 3.125 -10.890625 C 2.6875 -11.285156 2.332031 -11.78125 2.0625 -12.375 C 1.789062 -12.96875 1.65625 -13.703125 1.65625 -14.578125 C 1.65625 -15.273438 1.789062 -15.953125 2.0625 -16.609375 C 2.332031 -17.265625 2.722656 -17.84375 3.234375 -18.34375 C 3.753906 -18.851562 4.394531 -19.257812 5.15625 -19.5625 C 5.914062 -19.875 6.789062 -20.03125 7.78125 -20.03125 C 8.882812 -20.03125 9.890625 -19.851562 10.796875 -19.5 C 11.710938 -19.144531 12.515625 -18.640625 13.203125 -17.984375 Z M 12.546875 -16.703125" transform="translate(268.432 293.692)"/></g></g></g><g fill="#9C79E4"><g><g><path d="M 14.609375 -19.796875 L 14.609375 -17.625 L 5.09375 -17.625 L 5.09375 -11.046875 L 12.796875 -11.046875 L 12.796875 -8.9375 L 5.09375 -8.9375 L 5.09375 -2.1875 L 14.609375 -2.1875 L 14.609375 0 L 2.40625 0 L 2.40625 -19.796875 Z M 14.609375 -19.796875" transform="translate(294.404 293.692)"/></g></g></g></svg>